<?xml version="1.0" encoding="utf-8"?>
<!-- Generator: Adobe Illustrator 24.0.1, SVG Export Plug-In . SVG Version: 6.00 Build 0)  -->
<svg version="1.1" id="Camada_5" xmlns="http://www.w3.org/2000/svg" xmlns:xlink="http://www.w3.org/1999/xlink" x="0px" y="0px"
	 viewBox="0 0 1544 1544" style="enable-background:new 0 0 1544 1544;" xml:space="preserve">
<style type="text/css">
	.st0{fill:#11111B;}
	.st1{fill:none;stroke:#F9E2AF;stroke-width:14;stroke-miterlimit:10;}
	.st2{fill:none;}
	.st3{fill:#F9E2AF;}
	.st4{fill:#FAB387;stroke:#FAB387;stroke-width:14;stroke-miterlimit:10;}
	.st5{fill:#FAB387;stroke:#FAB387;stroke-width:14;stroke-linecap:round;stroke-miterlimit:10;}
	.st6{fill:#1E1E2E;stroke:#1E1E2E;stroke-width:14;stroke-miterlimit:10;}
</style>
<g id="Camada_6_cópia">
	<g>
		<ellipse class="st0" cx="773" cy="772" rx="773" ry="772"/>
	</g>
	<g id="Camada_10">
		<path class="st1" d="M418,1454c7.19-72.49,28.32-166.92,62-259"/>
	</g>
	<g>
		<path class="st2" d="M773,0C346.08,0,0,345.64,0,772c0,295.68,166.44,552.52,410.86,682.2c7.79-43.33,19.53-89.68,32.34-138.46
			c11.72-44.65,24.55-86.28,37.8-124.74c214,114,396,126,622-9c17.45,14.84,30.57,225.4,22.64,277.16
			C1375.24,1331.15,1546,1071.49,1546,772C1546,345.64,1199.92,0,773,0z"/>
		<path class="st3" d="M1103,1182c-226,135-408,123-622,9c-13.25,38.47-26.09,80.1-37.8,124.74
			c-12.8,48.78-24.54,95.13-32.34,138.46C518.89,1511.52,642.14,1544,773,1544c127.04,0,246.91-30.61,352.64-84.84
			C1133.57,1407.4,1120.45,1196.84,1103,1182z"/>
	</g>
	<g>
		<path class="st3" d="M784.79,1273.96c-69.46,0-136.82-11.72-200.23-34.83c-61.19-22.3-116.13-54.21-163.3-94.85
			c-47.09-40.57-84.05-87.8-109.85-140.36c-26.67-54.33-40.19-112.04-40.19-171.51s13.52-117.18,40.19-171.51
			c25.8-52.56,62.76-99.78,109.85-140.36c47.17-40.64,102.11-72.55,163.3-94.85c63.41-23.11,130.78-34.83,200.23-34.83
			s136.82,11.72,200.23,34.83c61.19,22.3,116.13,54.21,163.3,94.85c47.09,40.57,84.05,87.8,109.85,140.36
			c26.67,54.33,40.19,112.04,40.19,171.51s-13.52,117.18-40.19,171.51c-25.8,52.56-62.76,99.78-109.85,140.36
			c-47.17,40.64-102.11,72.55-163.3,94.85C921.61,1262.24,854.24,1273.96,784.79,1273.96z"/>
		<path class="st3" d="M784.79,397.87c68.64,0,135.2,11.57,197.84,34.4c60.39,22.01,114.6,53.49,161.13,93.58
			c46.37,39.95,82.75,86.43,108.13,138.14c26.19,53.36,39.48,110.03,39.48,168.43c0,58.4-13.28,115.06-39.48,168.43
			c-25.38,51.71-61.76,98.18-108.13,138.14c-46.52,40.08-100.73,71.57-161.13,93.58c-62.64,22.83-129.2,34.4-197.84,34.4
			s-135.2-11.57-197.84-34.4c-60.39-22.01-114.6-53.49-161.13-93.58c-46.37-39.95-82.75-86.43-108.13-138.14
			c-26.19-53.36-39.48-110.03-39.48-168.43c0-58.4,13.28-115.06,39.48-168.43c25.38-51.71,61.76-98.18,108.13-138.14
			c46.52-40.08,100.73-71.57,161.13-93.58C649.59,409.44,716.15,397.87,784.79,397.87 M784.79,383.87
			c-287.5,0-520.57,200.82-520.57,448.55s233.07,448.55,520.57,448.55s520.57-200.82,520.57-448.55S1072.29,383.87,784.79,383.87
			L784.79,383.87z"/>
	</g>
	<g id="Camada_11">
		<path class="st4" d="M765.65,930.7c58.43,53.28,625.36,140.82,607.93,65.11c-3.77-16.39-192.3-108.52-349.43-160.09
			C911.78,798.85,735.73,903.42,765.65,930.7z"/>
		<path class="st5" d="M762.2,920.88c4.91-30.56,42.96-59.54,75.63-106.48c24.05-34.55,30.86-63.33,54.02-70.99
			c27.76-9.18,36.54,13.16,70.72,39.44c23.08,17.74,59.91,52.25,87.82,61.68"/>
	</g>
	<g id="olhos_cópia">
		<path id="olho_direito_1_" class="st6" d="M932.84,707.76c6.93,7.87,50.13-49.04,113.64-44.17
			c60.22,4.62,93.43,61.29,100.38,54.96c8.84-8.05-26.16-120.72-101.33-120.72C963.15,597.83,924.41,698.19,932.84,707.76z"/>
		<path id="olho_esquerdo_1_" class="st6" d="M823.09,717.58c-7.19,7.87-51.99-49.04-117.87-44.17
			c-62.46,4.62-96.91,61.29-104.11,54.96c-9.17-8.05,27.13-120.72,105.1-120.72C791.66,607.65,831.84,708.01,823.09,717.58z"/>
	</g>
</g>
</svg>
