<?xml version="1.0" encoding="utf-8"?>
<!-- Generator: Adobe Illustrator 24.0.1, SVG Export Plug-In . SVG Version: 6.00 Build 0)  -->
<svg version="1.1" id="Layer_1" xmlns="http://www.w3.org/2000/svg" xmlns:xlink="http://www.w3.org/1999/xlink" x="0px" y="0px"
	 viewBox="0 0 1546 1544" style="enable-background:new 0 0 1546 1544;" xml:space="preserve">
<style type="text/css">
	.st0{fill:#11111B;}
	.st1{fill:#FFFFFF;}
</style>
<g>
	<ellipse class="st0" cx="773" cy="772" rx="773" ry="772"/>
</g>
<path class="st1" d="M1120.8,458c-65.8-29.7-134.2-51.3-205.4-63c-9,16.2-18.9,36.9-26.1,54c-75.7-11.7-152.3-11.7-227.9,0
	c-8.1-18.9-17.1-36.9-27-54c-71.2,11.7-140.5,33.3-205.4,63.9C299.1,652.3,264,840.4,281.1,1026.6c76.6,56.7,161.3,99.9,252.3,126.9
	c20.7-27.9,38.7-56.7,54.1-87.3c-29.7-10.8-57.7-24.3-84.7-40.5c7.2-5.4,13.5-10.8,20.7-16.2c159.5,75.6,345.1,75.6,504.5,0
	c7.2,5.4,13.5,10.8,20.7,16.2c-27,16.2-55.9,29.7-85.6,40.5c15.3,30.6,33.3,59.4,54.1,87.3c91-27.9,176.6-70.2,252.3-126.9
	C1289.2,810.7,1233.4,623.5,1120.8,458z M609,911.5c-49.6,0-89.2-45-89.2-99.9c0-54.9,39.6-100.8,89.2-100.8
	c50.5,0,90.1,45,90.1,100.8C698.2,866.5,659.5,911.5,609,911.5z M940.6,911.5c-49.6,0-89.2-45-89.2-99.9
	c0-54.9,39.6-100.8,89.2-100.8c50.5,0,90.1,45,89.2,100.8C1028.9,867.4,990.1,911.5,940.6,911.5z"/>
</svg>
