<?xml version="1.0" encoding="utf-8"?>
<!-- Generator: Adobe Illustrator 24.0.1, SVG Export Plug-In . SVG Version: 6.00 Build 0)  -->
<svg version="1.1" id="Layer_1" xmlns="http://www.w3.org/2000/svg" xmlns:xlink="http://www.w3.org/1999/xlink" x="0px" y="0px"
	 viewBox="0 0 1546 1544" style="enable-background:new 0 0 1546 1544;" xml:space="preserve">
<style type="text/css">
	.st0{fill:#11111B;}
	.st1{fill:#FFFFFF;}
</style>
<circle class="st0" cx="772" cy="772" r="772"/>
<path class="st1" d="M1223.9,763.7c0-54.7-44.8-99.3-99.8-99.3c-26.9,0-51.2,10.7-69.2,28c-68-44.7-160.1-73.1-261.9-76.8
	l55.7-175.2l150.9,35.3l-0.2,2.2c0,44.8,36.7,81.2,81.7,81.2c45,0,81.6-36.4,81.6-81.2s-36.6-81.2-81.6-81.2
	c-34.6,0-64,21.6-75.9,51.7l-162.7-38.1c-7.1-1.7-14.4,2.4-16.6,9.3l-62.2,195.4c-106.7,1.3-203.2,30-274.3,76
	c-17.8-16.4-41.5-26.7-67.6-26.7c-55,0.1-99.8,44.6-99.8,99.3c0,36.4,20,67.9,49.5,85.2c-1.9,10.6-3.2,21.3-3.2,32.2
	c0,146.7,180.7,266.2,402.8,266.2s402.8-119.4,402.8-266.2c0-10.3-1.1-20.4-2.8-30.4C1202.4,834,1223.9,801.5,1223.9,763.7z"/>
<g>
	<g>
		<path class="st0" d="M897.4,987.4c-24.5,24.3-65,36.1-123.9,36.1l-0.5,0.1l-0.5-0.1c-59,0-99.5-11.8-123.9-36.1
			c-5.5-5.4-14.4-5.4-19.8,0c-5.5,5.4-5.5,14.2,0,19.6c30,29.8,77,44.3,143.7,44.3l0.5-0.1l0.5,0.1c66.8,0,113.8-14.5,143.7-44.2
			c5.5-5.5,5.5-14.3,0-19.7C911.8,982,902.9,982,897.4,987.4z"/>
	</g>
	<g>
		<path class="st0" d="M695.6,831.8c0-32.6-26.7-59.1-59.4-59.1c-32.8,0-59.5,26.5-59.5,59.1c0,32.6,26.7,59.1,59.5,59.1
			C668.9,891,695.6,864.4,695.6,831.8z"/>
	</g>
	<g>
		<path class="st0" d="M910.1,772.8c-32.8,0-59.4,26.5-59.4,59.1c0,32.6,26.7,59.1,59.4,59.1s59.4-26.5,59.4-59.1
			C969.5,799.3,942.9,772.8,910.1,772.8z"/>
	</g>
</g>
</svg>
